<?xml version="1.0" encoding="UTF-8"?>
<svg width="64" height="64" version="1.1" viewBox="0 0 1.92 1.92" xmlns="http://www.w3.org/2000/svg">
<style>
  .frame { stroke: #000; stroke-opacity: .2; }
  .glyph { fill: #8a9296; }
  @media (prefers-color-scheme: dark) {
    .frame { stroke: #fff; stroke-opacity: .16; }
    .glyph { fill: #d2d2d2; }
  }
</style>
<rect class="frame" x=".02953" y=".02953" width="1.861" height="1.861" ry=".2554" fill="none" stroke-width=".05907"/>
<path d="m0.7795 1.47h-0.2378q-0.03822 0-0.06512-0.0269t-0.0269-0.06512v-0.2378q0.063-0.00767 0.1082-0.05237 0.04518-0.04472 0.04518-0.1085 0-0.06381-0.04518-0.1085-0.04518-0.0447-0.1082-0.05237v-0.2378q0-0.03822 0.0269-0.06512t0.06512-0.0269h0.2454q0.008267-0.05851 0.05125-0.09649 0.043-0.03799 0.1021-0.03799 0.0591 0 0.1021 0.03799 0.04299 0.03799 0.05125 0.09649h0.2454q0.03822 0 0.06512 0.0269t0.0269 0.06512v0.2454q0.0585 0.008267 0.09649 0.05125 0.03799 0.043 0.03799 0.1021 0 0.0591-0.03799 0.1021-0.03799 0.04299-0.09649 0.05125v0.2454q0 0.03822-0.0269 0.06512t-0.06512 0.0269h-0.2378q-0.008255-0.06607-0.05391-0.1097-0.04565-0.04365-0.107-0.04365-0.06134 0-0.107 0.04365-0.04565 0.04365-0.05391 0.1097zm-0.2378-0.09202h0.1663q0.0315-0.08116 0.09951-0.1173 0.068-0.0361 0.1329-0.0361 0.06488 0 0.1329 0.0361 0.06802 0.0361 0.09952 0.1173h0.1663v-0.3338h0.0755q0.02819-0.00354 0.04358-0.02277 0.0154-0.01923 0.0154-0.04211 0-0.02288-0.0154-0.04211t-0.04358-0.02277h-0.0755v-0.3338h-0.3338v-0.0755q-0.00354-0.02819-0.02277-0.04358-0.01923-0.0154-0.04211-0.0154t-0.04211 0.0154q-0.01924 0.0154-0.02277 0.04358v0.0755h-0.3338v0.168q0.06984 0.02891 0.1116 0.09183 0.04176 0.06294 0.04176 0.1389 0 0.07502-0.04176 0.138-0.04176 0.06294-0.1116 0.09278z" class="glyph"/>
</svg>
