<?xml version="1.0" encoding="UTF-8" standalone="no"?>
<svg
   xmlns:dc="http://purl.org/dc/elements/1.1/"
   xmlns:cc="http://creativecommons.org/ns#"
   xmlns:rdf="http://www.w3.org/1999/02/22-rdf-syntax-ns#"
   xmlns:svg="http://www.w3.org/2000/svg"
   xmlns="http://www.w3.org/2000/svg"
   xmlns:xlink="http://www.w3.org/1999/xlink"
   xml:space="preserve"
   enable-background="new 0 0 134.333 207.581"
   viewBox="0 0 48.000004 48"
   height="48"
   width="48"
   y="0px"
   x="0px"
   id="Layer_1"
   version="1.1"><metadata
   id="metadata70"><rdf:RDF><cc:Work
       rdf:about=""><dc:format>image/svg+xml</dc:format><dc:type
         rdf:resource="http://purl.org/dc/dcmitype/StillImage" /><dc:title></dc:title><cc:license
         rdf:resource="http://creativecommons.org/licenses/by/4.0/" /></cc:Work><cc:License
       rdf:about="http://creativecommons.org/licenses/by/4.0/"><cc:permits
         rdf:resource="http://creativecommons.org/ns#Reproduction" /><cc:permits
         rdf:resource="http://creativecommons.org/ns#Distribution" /><cc:requires
         rdf:resource="http://creativecommons.org/ns#Notice" /><cc:requires
         rdf:resource="http://creativecommons.org/ns#Attribution" /><cc:permits
         rdf:resource="http://creativecommons.org/ns#DerivativeWorks" /></cc:License></rdf:RDF></metadata><defs
   id="defs68"><linearGradient
     id="linearGradient886"><stop
       id="stop882"
       offset="0"
       style="stop-color:#79419d;stop-opacity:1" /><stop
       id="stop884"
       offset="1"
       style="stop-color:#592d92;stop-opacity:1" /></linearGradient><linearGradient
     gradientTransform="translate(-7.1036038,-7.0840332)"
     gradientUnits="userSpaceOnUse"
     y2="157.005"
     x2="7.0366549"
     y1="-1.4305115e-05"
     x1="7.0366549"
     id="linearGradient1037"
     xlink:href="#SVGID_7_" /><filter
     height="1.0223925"
     y="-0.011196272"
     width="1.0258561"
     x="-0.012928044"
     id="filter2024"
     style="color-interpolation-filters:sRGB"><feGaussianBlur
       id="feGaussianBlur2026"
       stdDeviation="0.67625008" /></filter><linearGradient
     xlink:href="#SVGID_7_"
     id="linearGradient920"
     gradientUnits="userSpaceOnUse"
     gradientTransform="matrix(0.35964527,0,0,0.35964527,-1.7195807,-5.2101644)"
     x1="7.0366549"
     y1="-1.4305115e-05"
     x2="7.0366549"
     y2="157.005" /></defs>
<path
   transform="matrix(0.35826425,0,0,0.35760011,3.2955233,0.22889064)"
   d="m 57.791078,-0.51685333 58.015782,33.49542733 0,66.990853 -58.015785,33.495423 -58.0157792,-33.495426 1.8e-6,-66.990853 z"
   id="path874"
   style="opacity:1;fill:#ffffff;fill-opacity:0.99163178;fill-rule:evenodd;stroke:none;stroke-width:0.2;stroke-linecap:butt;stroke-linejoin:miter;stroke-miterlimit:4;stroke-dasharray:none;stroke-dashoffset:0;stroke-opacity:1" /><path
   style="opacity:1;fill:url(#linearGradient920);fill-opacity:1;fill-rule:evenodd;stroke:none;stroke-width:5.15845871;stroke-linecap:butt;stroke-linejoin:miter;stroke-miterlimit:4;stroke-dasharray:none;stroke-dashoffset:0;stroke-opacity:1"
   d="M 24.000012,-2.0636292e-4 14.507342,5.4801706 c 0.0024,0.02661 0.0057,0.05344 0.0057,0.08077 v 9.0908784 l 5.1692,2.984634 c 0.279806,0.161484 0.45307,0.460595 0.45307,0.783915 v 24.387751 c 0,0.323686 -0.173264,0.622418 -0.45307,0.784616 l -1.65774,0.957416 5.974889,3.449646 9.487051,-5.476866 V 33.64981 L 28.4338,30.731907 C 28.153276,30.570422 27.980732,30.271654 27.980732,29.948695 V 5.5609506 c 0,-0.08084 0.01115,-0.159965 0.03162,-0.236019 0.06168,-0.228178 0.211067,-0.427056 0.421459,-0.547896 l 1.920448,-1.109142 z M 32.164381,4.7138166 29.790863,6.0835606 V 29.426085 h 7.19e-4 l 3.695497,2.133286 V 18.42108 c 0,-0.323322 0.172561,-0.622074 0.452364,-0.783915 L 44.244811,11.687564 Z M 12.70209,6.5218786 6.5670463,10.064243 12.70209,13.60661 Z M 4.7561743,11.109461 3.2150383,11.999443 V 34.90365 L 12.70209,29.426085 V 15.697047 Z m 40.0288067,2.356661 -9.487049,5.477566 v 13.661603 l 7.683205,4.435859 1.803844,-1.041705 z M 14.51296,16.742264 v 13.20643 c 0,0.32332 -0.173265,0.622433 -0.453069,0.783914 l -9.9843727,5.764863 12.1380297,7.006761 2.110809,-1.21872 V 18.943689 Z m 20.784972,17.952768 v 6.781979 l 5.872333,-3.391342 z"
   id="rect880" /><polygon
   style="fill:#191b28;fill-opacity:1;stroke:none;stroke-width:0.5;stroke-miterlimit:4;stroke-dasharray:none;stroke-opacity:1"
   id="polygon28"
   points="98.581,67.16 98.581,105.146 119.944,117.481 124.959,114.585 124.959,51.93 "
   transform="matrix(0.35964528,0,0,0.35964528,-0.15628474,-5.2100484)" /><polygon
   style="fill:#191b28;fill-opacity:1;stroke:none;stroke-width:0.5;stroke-miterlimit:4;stroke-dasharray:none;stroke-opacity:1"
   id="polygon21"
   points="9.374,111.538 35.752,96.307 35.752,58.133 13.66,45.377 9.374,47.852 "
   transform="matrix(0.35964528,0,0,0.35964528,-0.15629474,-5.2103984)" /><g
   style="stroke:none;stroke-width:0.5;stroke-miterlimit:4;stroke-dasharray:none;stroke-opacity:1"
   transform="translate(-166.10702,-105.54905)"
   id="g63">
	<g
   style="stroke:none;stroke-width:0.5;stroke-miterlimit:4;stroke-dasharray:none;stroke-opacity:1"
   id="g51">
		<radialGradient
   gradientUnits="userSpaceOnUse"
   r="81.8284"
   cy="81.301804"
   cx="65.654297"
   id="SVGID_1_">
			<stop
   id="stop2"
   style="stop-color:#57A2D9"
   offset="0" />
			<stop
   id="stop4"
   style="stop-color:#004A8E"
   offset="1" />
		</radialGradient>
		
		<radialGradient
   xlink:href="#linearGradient886"
   gradientUnits="userSpaceOnUse"
   r="81.835297"
   cy="81.299797"
   cx="65.649399"
   id="SVGID_2_">
			<stop
   id="stop9"
   style="stop-color:#57A2D9"
   offset="0" />
			<stop
   id="stop11"
   style="stop-color:#004A8E"
   offset="1" />
		</radialGradient>
		
		<radialGradient
   gradientUnits="userSpaceOnUse"
   r="81.833199"
   cy="81.300301"
   cx="65.648903"
   id="SVGID_3_">
			<stop
   id="stop16"
   style="stop-color:#D9DADA"
   offset="0" />
			<stop
   id="stop18"
   style="stop-color:#ADADAD"
   offset="1" />
		</radialGradient>
		
		<radialGradient
   gradientUnits="userSpaceOnUse"
   r="81.830101"
   cy="81.300301"
   cx="65.654297"
   id="SVGID_4_">
			<stop
   id="stop23"
   style="stop-color:#D9DADA"
   offset="0" />
			<stop
   id="stop25"
   style="stop-color:#ADADAD"
   offset="1" />
		</radialGradient>
		
		<radialGradient
   gradientUnits="userSpaceOnUse"
   r="81.919899"
   cy="81.2183"
   cx="65.649902"
   id="SVGID_5_">
			<stop
   id="stop30"
   style="stop-color:#57A2D9"
   offset="0" />
			<stop
   id="stop32"
   style="stop-color:#004A8E"
   offset="1" />
		</radialGradient>
		
		<radialGradient
   gradientUnits="userSpaceOnUse"
   r="81.8339"
   cy="81.3013"
   cx="65.648903"
   id="SVGID_6_">
			<stop
   id="stop37"
   style="stop-color:#57A2D9"
   offset="0" />
			<stop
   id="stop39"
   style="stop-color:#004A8E"
   offset="1" />
		</radialGradient>
		
		<radialGradient
   gradientUnits="userSpaceOnUse"
   r="81.832703"
   cy="81.299797"
   cx="65.649902"
   id="SVGID_7_">
			<stop
   id="stop44"
   style="stop-color:#79419d;stop-opacity:1"
   offset="0" />
			<stop
   id="stop46"
   style="stop-color:#592d92;stop-opacity:1"
   offset="1" />
		</radialGradient>
		
	</g>
	
</g>
</svg>